#N canvas -8 -8 1920 984 10;
#X obj 400 80 notein;
#X floatatom 400 140 5 0 0 0 - - -, f 5;
#X obj 390 260 mtof;
#X obj 431 704 dac~;
#X obj 400 110 stripnote;
#X obj 430 230 + 0;
#X obj 430 260 mtof;
#X obj 470 260 mtof;
#X obj 430 600 *~;
#X obj 470 600 *~;
#X obj 420 320 phasor~;
#X obj 470 320 phasor~;
#X obj 480 370 lop~;
#X obj 540 150 hsl 128 15 0 16 0 0 empty empty LFO\ filt.\ spd.\  -2
-8 0 10 #fcfcfc #000000 #000000 2300 1;
#X obj 540 170 mtof;
#X obj 830 30 tgl 31 0   play/pause 32 13 0 10 #fcfcfc #000000 #000000
0 1;
#X floatatom 830 190 5 0 0 0 - - -, f 5;
#X obj 830 240 bng 15 125 25 0 empty empty empty 17 7 0 10 #fcfcfc
#000000 #000000;
#X obj 830 214 select 0 1 2 3 4 5 6 7 8 9 10 11 12 13 14 15, f 54
;
#X obj 850 240 bng 15 125 25 0 empty empty empty 17 7 0 10 #fcfcfc
#000000 #000000;
#X obj 870 240 bng 15 125 25 0 empty empty empty 17 7 0 10 #fcfcfc
#000000 #000000;
#X obj 890 240 bng 15 125 25 0 empty empty empty 17 7 0 10 #fcfcfc
#000000 #000000;
#X obj 910 240 bng 15 125 25 0 empty empty empty 17 7 0 10 #fcfcfc
#000000 #000000;
#X obj 930 240 bng 15 125 25 0 empty empty empty 17 7 0 10 #fcfcfc
#000000 #000000;
#X obj 950 240 bng 15 125 25 0 empty empty empty 17 7 0 10 #fcfcfc
#000000 #000000;
#X obj 970 240 bng 15 125 25 0 empty empty empty 17 7 0 10 #fcfcfc
#000000 #000000;
#X obj 990 240 bng 15 125 25 0 empty empty empty 17 7 0 10 #fcfcfc
#000000 #000000;
#X obj 1010 240 bng 15 125 25 0 empty empty empty 17 7 0 10 #fcfcfc
#000000 #000000;
#X obj 1030 240 bng 15 125 25 0 empty empty empty 17 7 0 10 #fcfcfc
#000000 #000000;
#X obj 1050 240 bng 15 125 25 0 empty empty empty 17 7 0 10 #fcfcfc
#000000 #000000;
#X obj 1070 240 bng 15 125 25 0 empty empty empty 17 7 0 10 #fcfcfc
#000000 #000000;
#X obj 1090 240 bng 15 125 25 0 empty empty empty 17 7 0 10 #fcfcfc
#000000 #000000;
#X obj 1110 240 bng 15 125 25 0 empty empty empty 17 7 0 10 #fcfcfc
#000000 #000000;
#X obj 1130 240 bng 15 125 25 0 empty empty empty 17 7 0 10 #fcfcfc
#000000 #000000;
#X obj 920 410 bng 15 50 12 0 empty empty empty 17 7 0 10 #fcfcfc #000000
#000000;
#X msg 830 410 open kick.wav;
#X obj 760 70 makenote 64 128;
#X msg 830 440 1;
#X obj 420 290 *~ 1.5;
#X obj 1030 410 bng 15 50 12 0 empty empty empty 17 7 0 10 #fcfcfc
#000000 #000000;
#X msg 940 440 1;
#X obj 1150 410 bng 15 50 12 0 empty empty empty 17 7 0 10 #fcfcfc
#000000 #000000;
#X msg 1050 440 1;
#X msg 940 410 open hihat.wav;
#X obj 580 240 snapshot~;
#X obj 770 110 bng 15 50 10 0 empty empty empty 17 7 0 10 #fcfcfc #000000
#000000;
#X floatatom 580 260 10 0 0 0 filter - -, f 10;
#X floatatom 680 170 5 0 0 0 val - -, f 5;
#X obj 540 190 - 8;
#X obj 770 90 metro 10;
#X obj 540 110 hsl 128 15 20 2000 1 1 empty empty filt.\ cutoff\ (freq)
-2 -8 0 10 #fcfcfc #000000 #000000 7550 1;
#X obj 580 220 *~;
#X obj 580 200 +~;
#X obj 540 70 hsl 128 15 0 2 0 1 empty empty filt.\ amp -2 -8 0 10
#fcfcfc #000000 #000000 10200 1;
#X msg 1050 410 open snare.wav;
#X floatatom 940 70 5 0 0 0 - - -, f 5;
#X obj 830 130 metro;
#X obj 940 50 hsl 275 15 20 175 0 1 empty empty speed\ (BPM) -2 -8
0 10 #fcfcfc #000000 #000000 0 1;
#X floatatom 900 110 5 0 0 0 - - -, f 5;
#X floatatom 680 130 5 0 0 0 val - -, f 5;
#X floatatom 680 90 5 0 0 0 val - -, f 5;
#X msg 980 270 12;
#X obj 580 310 hsl 90 22 20 60 0 0 empty empty pattern\ pitch\ offset
-2 -8 0 10 #fcfcfc #000000 #000000 6950 1;
#X obj 760 290 +;
#X msg 650 360 40;
#X obj 380 320 osc~;
#X obj 830 470 readsf~;
#X floatatom 590 360 5 0 0 0 - - -, f 5;
#X obj 580 180 osc~;
#X text 580 340 tap to reset v;
#X text 770 220 bassline;
#X msg 890 270 7;
#X msg 920 270 8;
#X obj 830 376 bng 15 125 25 0 empty empty empty 17 7 0 10 #fcfcfc
#000000 #000000;
#X obj 830 350 select 0 1 2 3 4 5 6 7 8 9 10 11 12 13 14 15, f 54
;
#X obj 850 376 bng 15 125 25 0 empty empty empty 17 7 0 10 #fcfcfc
#000000 #000000;
#X obj 870 376 bng 15 125 25 0 empty empty empty 17 7 0 10 #fcfcfc
#000000 #000000;
#X obj 890 376 bng 15 125 25 0 empty empty empty 17 7 0 10 #fcfcfc
#000000 #000000;
#X obj 910 376 bng 15 125 25 0 empty empty empty 17 7 0 10 #fcfcfc
#000000 #000000;
#X obj 930 376 bng 15 125 25 0 empty empty empty 17 7 0 10 #fcfcfc
#000000 #000000;
#X obj 950 376 bng 15 125 25 0 empty empty empty 17 7 0 10 #fcfcfc
#000000 #000000;
#X obj 970 376 bng 15 125 25 0 empty empty empty 17 7 0 10 #fcfcfc
#000000 #000000;
#X obj 990 376 bng 15 125 25 0 empty empty empty 17 7 0 10 #fcfcfc
#000000 #000000;
#X obj 1010 376 bng 15 125 25 0 empty empty empty 17 7 0 10 #fcfcfc
#000000 #000000;
#X obj 1030 376 bng 15 125 25 0 empty empty empty 17 7 0 10 #fcfcfc
#000000 #000000;
#X obj 1050 376 bng 15 125 25 0 empty empty empty 17 7 0 10 #fcfcfc
#000000 #000000;
#X obj 1070 376 bng 15 125 25 0 empty empty empty 17 7 0 10 #fcfcfc
#000000 #000000;
#X obj 1090 376 bng 15 125 25 0 empty empty empty 17 7 0 10 #fcfcfc
#000000 #000000;
#X obj 1110 376 bng 15 125 25 0 empty empty empty 17 7 0 10 #fcfcfc
#000000 #000000;
#X obj 1130 376 bng 15 125 25 0 empty empty empty 17 7 0 10 #fcfcfc
#000000 #000000;
#X text 870 190 sequencer for notes;
#X text 390 190 bass synth;
#X msg 950 270 10;
#X msg 860 270 3;
#X obj 900 130 / 4;
#X floatatom 650 260 5 0 0 0 - - -, f 5;
#X obj 900 90 expr 60000/$f1;
#X text 640 200 match LFO to bpm;
#X obj 650 240 expr $f1/15;
#X text 790 350 drums;
#X obj 830 170 % 16;
#X msg 830 270 0;
#X obj 940 470 readsf~;
#X obj 1050 470 readsf~;
#X obj 550 471 vsl 15 95 1e-05 0.2 0 1 empty empty bass 0 -9 0 10 #fcfcfc
#000000 #000000 0 1;
#X obj 390 230 - 12;
#X obj 590 471 vsl 14 96 1e-05 0.5 0 1 empty empty drums 0 -9 0 10
#fcfcfc #000000 #000000 0 1;
#X obj 770 600 *~;
#X obj 730 600 *~;
#X obj 230 600 *~;
#X obj 270 600 *~;
#X floatatom 550 581 5 0 0 0 - - -, f 5;
#X floatatom 590 580 5 0 0 0 - - -, f 5;
#X obj 630 470 vsl 15 95 1e-05 0.5 0 1 empty empty granular 0 -9 0
10 #fcfcfc #000000 #000000 0 1;
#X floatatom 630 581 5 0 0 0 - - -, f 5;
#X text 469 704 output;
#X obj 470 230 + 0.05;
#X text 470 210 detune;
#X obj 830 149 int 1;
#X obj 1020 165 + 1;
#X text 90 230 granular;
#X obj 90 280 soundfiler;
#X obj 90 320 expr 44100 / $f1;
#X obj 90 350 phasor~;
#X obj 100 460 tabread4~ sample1;
#X floatatom 90 300 5 0 0 0 - - -, f 5;
#X obj 240 330 phasor~;
#X obj 240 360 samphold~, f 11;
#X obj 90 380 *~;
#X obj 180 420 +~;
#X obj 790 290 + 0;
#N canvas 0 0 450 300 (subpatch) 0;
#X array sample1 200704 float 0 black #00ff80;
#X coords 0 1 200703 -1 200 140 1;
#X restore 90 80 graph;
#X msg 90 250 read -resize sound.wav sample1;
#X obj 90 420 *~ 256;
#X obj 250 470 tabread~ env;
#N canvas 0 0 450 300 (subpatch) 0;
#X array env 256 float 1 black #00d710;
#A 0 0.0143164 0.0197219 0.0251273 0.0305327 0.0359381 0.0413436 0.0521544
0.0629653 0.0737761 0.084587 0.122425 0.12783 0.133236 0.138641 0.144047
0.149452 0.154858 0.160263 0.165668 0.171074 0.230533 0.235939 0.241344
0.24675 0.252155 0.257561 0.264317 0.271074 0.277831 0.284588 0.289993
0.295399 0.300804 0.306209 0.311615 0.31702 0.322426 0.327831 0.333237
0.338642 0.344047 0.349453 0.354858 0.360264 0.446751 0.446751 0.446751
0.446751 0.446751 0.473778 0.473778 0.473778 0.473778 0.473778 0.473778
0.473778 0.473778 0.473778 0.473778 0.527832 0.533237 0.538643 0.544048
0.549454 0.581886 0.581886 0.581886 0.581886 0.581886 0.581886 0.581886
0.581886 0.581886 0.581886 0.581886 0.588643 0.5954 0.602157 0.63594
0.63594 0.63594 0.63594 0.63594 0.63594 0.63594 0.63594 0.63594 0.63594
0.63594 0.641346 0.646751 0.652157 0.657562 0.717022 0.717022 0.717022
0.717022 0.717022 0.717022 0.717022 0.717022 0.717022 0.717022 0.717022
0.717022 0.717022 0.717022 0.717022 0.717022 0.717022 0.717022 0.717022
0.717022 0.717022 0.717022 0.717022 0.717022 0.717022 0.717022 0.717022
0.717022 0.717022 0.717022 0.717022 0.717022 0.717022 0.717022 0.717022
0.717022 0.717022 0.717022 0.717022 0.717022 0.717022 0.717022 0.717022
0.717022 0.717022 0.717022 0.717022 0.717022 0.717022 0.689995 0.689995
0.689995 0.689995 0.689995 0.689995 0.689995 0.689995 0.689995 0.689995
0.689995 0.689995 0.689995 0.689995 0.689995 0.689995 0.689995 0.689995
0.689995 0.689995 0.689995 0.684589 0.679184 0.673778 0.668373 0.662968
0.662968 0.662968 0.662968 0.662968 0.662968 0.662968 0.662968 0.662968
0.662968 0.662968 0.662968 0.662968 0.662968 0.616114 0.610709 0.605303
0.599898 0.594493 0.589087 0.589087 0.589087 0.589087 0.589087 0.589087
0.529628 0.524222 0.518817 0.513411 0.508006 0.5026 0.497195 0.49179
0.486384 0.480979 0.453952 0.453952 0.453952 0.453952 0.453952 0.426924
0.426924 0.426924 0.426924 0.426924 0.399897 0.399897 0.399897 0.399897
0.399897 0.291789 0.291789 0.291789 0.291789 0.291789 0.232329 0.226924
0.221518 0.216113 0.210707 0.18368 0.18368 0.18368 0.18368 0.156653
0.156653 0.156653 0.156653 0.156653 0.156653 0.156653 0.156653 0.156653
0.156653 0.0431392 0.0377337 0.0323283 0.0269229 0.0215175 0 0 0 0
0 0 0 0 0 0;
#X coords 0 1 255 0 52 37 1;
#X restore 310 400 graph;
#X obj 110 500 *~;
#X obj 40 530 osc~ 1;
#X obj 50 70 bng 15 50 10 0 empty empty empty 17 7 0 10 #fcfcfc #000000
#000000;
#X obj 40 550 snapshot~;
#X obj 100 550 snapshot~;
#X floatatom 40 590 5 0 0 0 - - -, f 5;
#X floatatom 100 590 5 0 0 0 - - -, f 5;
#X obj 40 610 *~;
#X obj 100 610 *~;
#X obj 300 250 snapshot~;
#X floatatom 240 300 5 0 0 0 - - -, f 5;
#X obj 300 230 osc~ 1;
#X obj 320 50 bng 19 250 50 0 empty empty empty 17 7 0 10 #fcfcfc #000000
#000000;
#X obj 100 530 osc~ 1.5;
#X obj 110 570 + 2;
#X obj 40 570 + 2;
#X obj 300 270 + 2;
#X obj 696 663 hsl 136 16 0 1 0 0 empty empty L-R\ Channel\ Slider
-2 -8 0 10 #fcfcfc #000000 #000000 6850 1;
#X floatatom 721 701 5 0 0 0 - - -, f 5;
#X floatatom 625 659 5 0 0 0 - - -, f 5;
#X floatatom 596 702 5 0 0 0 - - -, f 5;
#X obj 674 701 -;
#X obj 645 702 abs;
#X obj 430 653 *~;
#X obj 480 653 *~;
#X obj 300 290 * 8;
#X connect 0 0 4 0;
#X connect 0 1 4 1;
#X connect 1 0 5 0;
#X connect 1 0 105 0;
#X connect 1 0 116 0;
#X connect 2 0 65 0;
#X connect 4 0 1 0;
#X connect 5 0 6 0;
#X connect 6 0 38 0;
#X connect 7 0 11 0;
#X connect 8 0 159 0;
#X connect 9 0 160 0;
#X connect 10 0 12 0;
#X connect 11 0 12 0;
#X connect 12 0 8 0;
#X connect 12 0 9 0;
#X connect 13 0 14 0;
#X connect 14 0 48 0;
#X connect 15 0 49 0;
#X connect 15 0 56 0;
#X connect 16 0 18 0;
#X connect 16 0 74 0;
#X connect 17 0 93 0;
#X connect 18 0 17 0;
#X connect 18 1 19 0;
#X connect 18 2 20 0;
#X connect 18 3 21 0;
#X connect 18 4 22 0;
#X connect 18 5 23 0;
#X connect 18 6 24 0;
#X connect 18 7 25 0;
#X connect 18 8 26 0;
#X connect 18 9 27 0;
#X connect 18 10 28 0;
#X connect 18 11 29 0;
#X connect 18 12 30 0;
#X connect 18 13 31 0;
#X connect 18 14 32 0;
#X connect 18 15 33 0;
#X connect 19 0 101 0;
#X connect 20 0 61 0;
#X connect 21 0 101 0;
#X connect 22 0 92 0;
#X connect 23 0 61 0;
#X connect 24 0 101 0;
#X connect 26 0 71 0;
#X connect 27 0 72 0;
#X connect 28 0 92 0;
#X connect 29 0 101 0;
#X connect 34 0 35 0;
#X connect 34 0 37 0;
#X connect 35 0 66 0;
#X connect 36 0 4 0;
#X connect 36 1 4 1;
#X connect 37 0 66 0;
#X connect 38 0 10 0;
#X connect 39 0 43 0;
#X connect 39 0 40 0;
#X connect 40 0 102 0;
#X connect 41 0 54 0;
#X connect 41 0 42 0;
#X connect 42 0 103 0;
#X connect 43 0 102 0;
#X connect 44 0 12 1;
#X connect 44 0 46 0;
#X connect 45 0 44 0;
#X connect 45 0 138 0;
#X connect 48 0 47 0;
#X connect 48 0 68 0;
#X connect 49 0 45 0;
#X connect 50 0 51 1;
#X connect 50 0 59 0;
#X connect 51 0 44 0;
#X connect 52 0 51 0;
#X connect 53 0 52 1;
#X connect 53 0 60 0;
#X connect 54 0 103 0;
#X connect 55 0 96 0;
#X connect 55 0 98 0;
#X connect 56 0 118 0;
#X connect 57 0 55 0;
#X connect 58 0 94 0;
#X connect 61 0 63 0;
#X connect 61 0 130 0;
#X connect 62 0 63 1;
#X connect 62 0 67 0;
#X connect 63 0 36 0;
#X connect 64 0 63 1;
#X connect 65 0 8 0;
#X connect 65 0 9 0;
#X connect 66 0 108 0;
#X connect 66 0 107 0;
#X connect 68 0 52 0;
#X connect 71 0 63 0;
#X connect 72 0 63 0;
#X connect 73 0 34 0;
#X connect 74 0 73 0;
#X connect 74 1 75 0;
#X connect 74 2 76 0;
#X connect 74 3 77 0;
#X connect 74 4 78 0;
#X connect 74 5 79 0;
#X connect 74 6 80 0;
#X connect 74 7 81 0;
#X connect 74 8 82 0;
#X connect 74 9 83 0;
#X connect 74 10 84 0;
#X connect 74 11 85 0;
#X connect 74 12 86 0;
#X connect 74 13 87 0;
#X connect 74 14 88 0;
#X connect 74 15 89 0;
#X connect 75 0 39 0;
#X connect 76 0 39 0;
#X connect 77 0 39 0;
#X connect 78 0 41 0;
#X connect 78 0 39 0;
#X connect 79 0 39 0;
#X connect 80 0 39 0;
#X connect 81 0 39 0;
#X connect 82 0 34 0;
#X connect 83 0 39 0;
#X connect 84 0 39 0;
#X connect 85 0 39 0;
#X connect 86 0 41 0;
#X connect 86 0 39 0;
#X connect 87 0 39 0;
#X connect 88 0 39 0;
#X connect 89 0 34 0;
#X connect 92 0 63 0;
#X connect 93 0 63 0;
#X connect 94 0 56 1;
#X connect 96 0 58 0;
#X connect 98 0 68 0;
#X connect 98 0 95 0;
#X connect 100 0 16 0;
#X connect 101 0 63 0;
#X connect 101 0 130 0;
#X connect 102 0 108 0;
#X connect 102 0 107 0;
#X connect 103 0 108 0;
#X connect 103 0 107 0;
#X connect 104 0 111 0;
#X connect 104 0 8 1;
#X connect 104 0 9 1;
#X connect 105 0 2 0;
#X connect 106 0 112 0;
#X connect 106 0 108 1;
#X connect 106 0 107 1;
#X connect 107 0 160 0;
#X connect 108 0 159 0;
#X connect 109 0 3 0;
#X connect 110 0 3 1;
#X connect 113 0 114 0;
#X connect 113 0 109 1;
#X connect 113 0 110 1;
#X connect 116 0 7 0;
#X connect 118 0 119 0;
#X connect 118 0 100 0;
#X connect 119 0 118 1;
#X connect 121 0 125 0;
#X connect 122 0 123 0;
#X connect 123 0 128 0;
#X connect 124 0 136 0;
#X connect 125 0 122 0;
#X connect 125 0 128 1;
#X connect 126 0 127 1;
#X connect 126 0 133 0;
#X connect 127 0 129 1;
#X connect 128 0 127 0;
#X connect 129 0 124 0;
#X connect 130 0 63 0;
#X connect 132 0 121 0;
#X connect 133 0 129 0;
#X connect 133 0 134 0;
#X connect 134 0 136 1;
#X connect 136 0 143 0;
#X connect 136 0 144 0;
#X connect 137 0 139 0;
#X connect 138 0 139 0;
#X connect 138 0 140 0;
#X connect 139 0 151 0;
#X connect 140 0 150 0;
#X connect 141 0 143 1;
#X connect 142 0 144 1;
#X connect 143 0 109 0;
#X connect 144 0 110 0;
#X connect 145 0 152 0;
#X connect 146 0 126 0;
#X connect 147 0 145 0;
#X connect 148 0 145 0;
#X connect 149 0 140 0;
#X connect 150 0 142 0;
#X connect 151 0 141 0;
#X connect 152 0 161 0;
#X connect 153 0 155 0;
#X connect 153 0 157 0;
#X connect 154 0 157 1;
#X connect 155 0 160 1;
#X connect 156 0 159 1;
#X connect 157 0 158 0;
#X connect 158 0 156 0;
#X connect 159 0 3 0;
#X connect 160 0 3 1;
#X connect 161 0 146 0;
