#N canvas -8 -8 1920 984 10;
#X obj 400 70 notein;
#X floatatom 400 130 5 0 0 0 - - -, f 5;
#X floatatom 470 130 5 0 0 0 - - -, f 5;
#X obj 390 240 mtof;
#X obj 380 310 phasor~;
#X obj 430 540 dac~;
#X obj 860 360 vsl 15 128 0 127 0 0 empty empty vol 0 -13 0 10 #fcfcfc
#000000 #000000 0 1;
#X obj 460 330 phasor~;
#X msg 580 90 50;
#X msg 610 90 50;
#X msg 640 90 50;
#X msg 670 90 50;
#X msg 700 90 50;
#X obj 680 170 metro;
#X msg 550 90 48;
#X obj 400 100 stripnote;
#X obj 390 190 + 0;
#X obj 470 260 *~ 1.01;
#X obj 580 330 phasor~;
#X obj 420 460 *~ 0.7;
#X obj 500 470 *~ 0.7, f 7;
#X obj 450 190 + 0;
#X obj 460 220 mtof;
#X obj 532 212 mtof;
#X obj 522 182 + 7;
#X connect 0 0 15 0;
#X connect 0 1 15 1;
#X connect 1 0 16 0;
#X connect 1 0 21 0;
#X connect 1 0 24 0;
#X connect 3 0 4 0;
#X connect 3 0 17 0;
#X connect 4 0 19 0;
#X connect 4 0 20 0;
#X connect 7 0 19 0;
#X connect 7 0 20 0;
#X connect 15 0 1 0;
#X connect 15 1 2 0;
#X connect 16 0 3 0;
#X connect 17 0 7 0;
#X connect 18 0 20 0;
#X connect 18 0 19 0;
#X connect 19 0 5 0;
#X connect 20 0 5 1;
#X connect 21 0 22 0;
#X connect 22 0 17 0;
#X connect 23 0 18 0;
#X connect 24 0 23 0;
