#N canvas -8 -8 1920 984 10;
#X obj 400 80 notein;
#X floatatom 400 140 5 0 0 0 - - -, f 5;
#X obj 390 260 mtof;
#X obj 550 650 dac~;
#X obj 400 110 stripnote;
#X obj 430 230 + 0;
#X obj 430 260 mtof;
#X obj 470 260 mtof;
#X obj 430 600 *~;
#X obj 470 600 *~;
#X obj 420 320 phasor~;
#X obj 470 320 phasor~;
#X obj 480 370 lop~;
#X obj 540 150 hsl 128 15 0 16 0 0 empty empty LFO\ filt.\ spd.\  -2
-8 0 10 #fcfcfc #000000 #000000 0 1;
#X obj 540 170 mtof;
#X obj 830 30 tgl 31 0   play/pause 32 13 0 10 #fcfcfc #000000 #000000
0 1;
#X obj 830 150 counter;
#X floatatom 830 190 5 0 0 0 - - -, f 5;
#X obj 830 240 bng 15 125 25 0 empty empty empty 17 7 0 10 #fcfcfc
#000000 #000000;
#X obj 830 214 select 0 1 2 3 4 5 6 7 8 9 10 11 12 13 14 15, f 54
;
#X obj 850 240 bng 15 125 25 0 empty empty empty 17 7 0 10 #fcfcfc
#000000 #000000;
#X obj 870 240 bng 15 125 25 0 empty empty empty 17 7 0 10 #fcfcfc
#000000 #000000;
#X obj 890 240 bng 15 125 25 0 empty empty empty 17 7 0 10 #fcfcfc
#000000 #000000;
#X obj 910 240 bng 15 125 25 0 empty empty empty 17 7 0 10 #fcfcfc
#000000 #000000;
#X obj 930 240 bng 15 125 25 0 empty empty empty 17 7 0 10 #fcfcfc
#000000 #000000;
#X obj 950 240 bng 15 125 25 0 empty empty empty 17 7 0 10 #fcfcfc
#000000 #000000;
#X obj 970 240 bng 15 125 25 0 empty empty empty 17 7 0 10 #fcfcfc
#000000 #000000;
#X obj 990 240 bng 15 125 25 0 empty empty empty 17 7 0 10 #fcfcfc
#000000 #000000;
#X obj 1010 240 bng 15 125 25 0 empty empty empty 17 7 0 10 #fcfcfc
#000000 #000000;
#X obj 1030 240 bng 15 125 25 0 empty empty empty 17 7 0 10 #fcfcfc
#000000 #000000;
#X obj 1050 240 bng 15 125 25 0 empty empty empty 17 7 0 10 #fcfcfc
#000000 #000000;
#X obj 1070 240 bng 15 125 25 0 empty empty empty 17 7 0 10 #fcfcfc
#000000 #000000;
#X obj 1090 240 bng 15 125 25 0 empty empty empty 17 7 0 10 #fcfcfc
#000000 #000000;
#X obj 1110 240 bng 15 125 25 0 empty empty empty 17 7 0 10 #fcfcfc
#000000 #000000;
#X obj 1130 240 bng 15 125 25 0 empty empty empty 17 7 0 10 #fcfcfc
#000000 #000000;
#X obj 920 520 bng 15 50 12 0 empty empty empty 17 7 0 10 #fcfcfc #000000
#000000;
#X msg 830 520 open kick.wav;
#X obj 760 70 makenote 64 128;
#X msg 830 550 1;
#X obj 420 290 *~ 1.5;
#X obj 1030 520 bng 15 50 12 0 empty empty empty 17 7 0 10 #fcfcfc
#000000 #000000;
#X msg 940 550 1;
#X obj 1150 520 bng 15 50 12 0 empty empty empty 17 7 0 10 #fcfcfc
#000000 #000000;
#X msg 1050 550 1;
#X msg 940 520 open hihat.wav;
#X obj 580 240 snapshot~;
#X obj 770 110 bng 15 50 10 0 empty empty empty 17 7 0 10 #fcfcfc #000000
#000000;
#X floatatom 580 260 10 0 0 0 filter - -, f 10;
#X floatatom 680 170 5 0 0 0 val - -, f 5;
#X obj 540 190 - 8;
#X obj 770 90 metro 10;
#X obj 540 110 hsl 128 15 20 2000 1 1 empty empty filt.\ cutoff\ (freq)
-2 -8 0 10 #fcfcfc #000000 #000000 7600 1;
#X obj 580 220 *~;
#X obj 580 200 +~;
#X obj 540 70 hsl 128 15 0 2 0 1 empty empty filt.\ amp -2 -8 0 10
#fcfcfc #000000 #000000 9400 1;
#X msg 1050 520 open snare.wav;
#X floatatom 940 70 5 0 0 0 - - -, f 5;
#X obj 830 130 metro;
#X obj 940 50 hsl 275 15 20 175 0 1 empty empty speed\ (BPM) -2 -8
0 10 #fcfcfc #000000 #000000 10900 1;
#X floatatom 900 110 5 0 0 0 - - -, f 5;
#X floatatom 680 130 5 0 0 0 val - -, f 5;
#X floatatom 680 90 5 0 0 0 val - -, f 5;
#X msg 980 270 12;
#X obj 590 310 hsl 90 22 35 45 0 0 empty empty pattern\ pitch\ offset
-2 -8 0 10 #fcfcfc #000000 #000000 0 1;
#X obj 760 290 +;
#X msg 650 360 40;
#X obj 380 320 osc~;
#X obj 830 580 readsf~;
#X floatatom 590 360 5 0 0 0 - - -, f 5;
#X obj 580 180 osc~;
#X text 580 340 tap to reset v;
#X text 770 220 bassline;
#X msg 890 270 7;
#X msg 920 270 8;
#X obj 830 486 bng 15 125 25 0 empty empty empty 17 7 0 10 #fcfcfc
#000000 #000000;
#X obj 830 460 select 0 1 2 3 4 5 6 7 8 9 10 11 12 13 14 15, f 54
;
#X obj 850 486 bng 15 125 25 0 empty empty empty 17 7 0 10 #fcfcfc
#000000 #000000;
#X obj 870 486 bng 15 125 25 0 empty empty empty 17 7 0 10 #fcfcfc
#000000 #000000;
#X obj 890 486 bng 15 125 25 0 empty empty empty 17 7 0 10 #fcfcfc
#000000 #000000;
#X obj 910 486 bng 15 125 25 0 empty empty empty 17 7 0 10 #fcfcfc
#000000 #000000;
#X obj 930 486 bng 15 125 25 0 empty empty empty 17 7 0 10 #fcfcfc
#000000 #000000;
#X obj 950 486 bng 15 125 25 0 empty empty empty 17 7 0 10 #fcfcfc
#000000 #000000;
#X obj 970 486 bng 15 125 25 0 empty empty empty 17 7 0 10 #fcfcfc
#000000 #000000;
#X obj 990 486 bng 15 125 25 0 empty empty empty 17 7 0 10 #fcfcfc
#000000 #000000;
#X obj 1010 486 bng 15 125 25 0 empty empty empty 17 7 0 10 #fcfcfc
#000000 #000000;
#X obj 1030 486 bng 15 125 25 0 empty empty empty 17 7 0 10 #fcfcfc
#000000 #000000;
#X obj 1050 486 bng 15 125 25 0 empty empty empty 17 7 0 10 #fcfcfc
#000000 #000000;
#X obj 1070 486 bng 15 125 25 0 empty empty empty 17 7 0 10 #fcfcfc
#000000 #000000;
#X obj 1090 486 bng 15 125 25 0 empty empty empty 17 7 0 10 #fcfcfc
#000000 #000000;
#X obj 1110 486 bng 15 125 25 0 empty empty empty 17 7 0 10 #fcfcfc
#000000 #000000;
#X obj 1130 486 bng 15 125 25 0 empty empty empty 17 7 0 10 #fcfcfc
#000000 #000000;
#X text 870 190 sequencer for notes;
#X text 390 190 bass synth;
#X msg 950 270 10;
#X msg 860 270 3;
#X obj 900 130 / 4;
#X floatatom 650 260 5 0 0 0 - - -, f 5;
#X obj 900 90 expr 60000/$f1;
#X text 640 200 match LFO to bpm;
#X obj 650 240 expr $f1/15;
#X text 780 460 drums;
#X obj 830 170 % 16;
#X msg 830 270 0;
#X obj 790 290 + 0;
#X text 210 220 lead synth;
#X obj 940 580 readsf~;
#X obj 1050 580 readsf~;
#X obj 550 471 vsl 15 95 1e-05 0.2 0 1 empty empty bass 0 -9 0 10 #fcfcfc
#000000 #000000 7900 1;
#X obj 390 230 - 12;
#X obj 590 471 vsl 14 96 1e-05 0.5 0 1 empty empty drums 0 -9 0 10
#fcfcfc #000000 #000000 5650 1;
#X obj 770 600 *~;
#X obj 730 600 *~;
#X obj 100 70 delwrite~ audio-buffer 3000;
#X obj 230 240 osc~;
#X obj 270 240 osc~;
#X obj 230 600 *~;
#X obj 270 600 *~;
#X floatatom 550 581 5 0 0 0 - - -, f 5;
#X floatatom 590 580 5 0 0 0 - - -, f 5;
#X obj 630 470 vsl 15 95 1e-05 0.2 0 1 empty empty lead 0 -9 0 10 #fcfcfc
#000000 #000000 0 1;
#X floatatom 630 581 5 0 0 0 - - -, f 5;
#X text 590 650 output;
#X obj 730 370 makenote 64 128;
#X obj 320 360 stripnote;
#X obj 470 230 + 0.05;
#X text 470 210 detune;
#X obj 320 380 mtof;
#X obj 730 340 + 52;
#X obj 240 420 delay~ 22000;
#X obj 180 240 osc~;
#X connect 0 0 4 0;
#X connect 0 1 4 1;
#X connect 1 0 5 0;
#X connect 1 0 108 0;
#X connect 1 0 124 0;
#X connect 2 0 66 0;
#X connect 4 0 1 0;
#X connect 5 0 6 0;
#X connect 6 0 39 0;
#X connect 7 0 11 0;
#X connect 8 0 3 0;
#X connect 9 0 3 1;
#X connect 10 0 12 0;
#X connect 11 0 12 0;
#X connect 12 0 8 0;
#X connect 12 0 9 0;
#X connect 13 0 14 0;
#X connect 14 0 49 0;
#X connect 15 0 50 0;
#X connect 15 0 57 0;
#X connect 16 0 101 0;
#X connect 17 0 19 0;
#X connect 17 0 75 0;
#X connect 18 0 94 0;
#X connect 19 0 18 0;
#X connect 19 1 20 0;
#X connect 19 2 21 0;
#X connect 19 3 22 0;
#X connect 19 4 23 0;
#X connect 19 5 24 0;
#X connect 19 6 25 0;
#X connect 19 7 26 0;
#X connect 19 8 27 0;
#X connect 19 9 28 0;
#X connect 19 10 29 0;
#X connect 19 11 30 0;
#X connect 19 12 31 0;
#X connect 19 13 32 0;
#X connect 19 14 33 0;
#X connect 19 15 34 0;
#X connect 20 0 102 0;
#X connect 21 0 62 0;
#X connect 22 0 102 0;
#X connect 23 0 93 0;
#X connect 24 0 62 0;
#X connect 25 0 102 0;
#X connect 27 0 72 0;
#X connect 28 0 73 0;
#X connect 29 0 93 0;
#X connect 30 0 102 0;
#X connect 34 0 62 0;
#X connect 35 0 36 0;
#X connect 35 0 38 0;
#X connect 36 0 67 0;
#X connect 37 0 4 0;
#X connect 37 1 4 1;
#X connect 38 0 67 0;
#X connect 39 0 10 0;
#X connect 40 0 44 0;
#X connect 40 0 41 0;
#X connect 41 0 105 0;
#X connect 42 0 55 0;
#X connect 42 0 43 0;
#X connect 43 0 106 0;
#X connect 44 0 105 0;
#X connect 45 0 12 1;
#X connect 45 0 47 0;
#X connect 46 0 45 0;
#X connect 49 0 48 0;
#X connect 49 0 69 0;
#X connect 50 0 46 0;
#X connect 51 0 52 1;
#X connect 51 0 60 0;
#X connect 52 0 45 0;
#X connect 53 0 52 0;
#X connect 54 0 53 1;
#X connect 54 0 61 0;
#X connect 55 0 106 0;
#X connect 56 0 97 0;
#X connect 56 0 99 0;
#X connect 57 0 16 0;
#X connect 58 0 56 0;
#X connect 59 0 95 0;
#X connect 62 0 64 0;
#X connect 62 0 103 0;
#X connect 63 0 64 1;
#X connect 63 0 68 0;
#X connect 64 0 37 0;
#X connect 65 0 64 1;
#X connect 66 0 8 0;
#X connect 66 0 9 0;
#X connect 67 0 111 0;
#X connect 67 0 110 0;
#X connect 69 0 53 0;
#X connect 72 0 64 0;
#X connect 73 0 64 0;
#X connect 74 0 35 0;
#X connect 75 0 74 0;
#X connect 75 1 76 0;
#X connect 75 2 77 0;
#X connect 75 3 78 0;
#X connect 75 4 79 0;
#X connect 75 5 80 0;
#X connect 75 6 81 0;
#X connect 75 7 82 0;
#X connect 75 8 83 0;
#X connect 75 9 84 0;
#X connect 75 10 85 0;
#X connect 75 11 86 0;
#X connect 75 12 87 0;
#X connect 75 13 88 0;
#X connect 75 14 89 0;
#X connect 75 15 90 0;
#X connect 76 0 40 0;
#X connect 77 0 40 0;
#X connect 78 0 40 0;
#X connect 79 0 42 0;
#X connect 80 0 40 0;
#X connect 81 0 40 0;
#X connect 82 0 40 0;
#X connect 83 0 35 0;
#X connect 84 0 40 0;
#X connect 85 0 40 0;
#X connect 86 0 40 0;
#X connect 87 0 42 0;
#X connect 88 0 40 0;
#X connect 89 0 40 0;
#X connect 90 0 35 0;
#X connect 93 0 64 0;
#X connect 94 0 64 0;
#X connect 95 0 57 1;
#X connect 97 0 59 0;
#X connect 99 0 69 0;
#X connect 99 0 96 0;
#X connect 101 0 17 0;
#X connect 102 0 64 0;
#X connect 102 0 103 0;
#X connect 103 0 64 0;
#X connect 105 0 111 0;
#X connect 105 0 110 0;
#X connect 106 0 111 0;
#X connect 106 0 110 0;
#X connect 107 0 117 0;
#X connect 107 0 8 1;
#X connect 107 0 9 1;
#X connect 108 0 2 0;
#X connect 109 0 118 0;
#X connect 109 0 111 1;
#X connect 109 0 110 1;
#X connect 110 0 3 1;
#X connect 111 0 3 0;
#X connect 115 0 3 0;
#X connect 116 0 3 1;
#X connect 119 0 120 0;
#X connect 119 0 115 1;
#X connect 119 0 116 1;
#X connect 122 0 123 0;
#X connect 122 1 123 1;
#X connect 123 0 126 0;
#X connect 124 0 7 0;
#X connect 126 0 129 0;
#X connect 127 0 122 0;
#X connect 128 0 116 0;
#X connect 129 0 128 0;
#X connect 129 0 115 0;
